<?xml version="1.0" standalone="no"?>
<!DOCTYPE svg PUBLIC "-//W3C//DTD SVG 20010904//EN"
 "http://www.w3.org/TR/2001/REC-SVG-20010904/DTD/svg10.dtd">
<svg version="1.0" xmlns="http://www.w3.org/2000/svg"
 width="450.000000pt" height="450.000000pt" viewBox="0 0 450.000000 450.000000"
 preserveAspectRatio="xMidYMid meet">
<metadata>
Created by potrace 1.14, written by Peter Selinger 2001-2017
</metadata>
<g transform="translate(0.000000,450.000000) scale(0.100000,-0.100000)"
fill="#000000" stroke="none">
<path d="M1960 4250 c-159 -49 -186 -59 -347 -127 -156 -67 -151 -55 -99 -211
50 -151 65 -168 160 -176 22 -2 43 -5 46 -5 3 -1 -33 -18 -80 -37 -229 -93
-405 -199 -559 -335 -137 -121 -227 -252 -240 -350 l-6 -47 -157 105 c-86 58
-162 102 -167 98 -29 -17 0 -207 70 -457 25 -89 28 -110 17 -127 -24 -39 17
-180 90 -305 32 -54 34 -63 29 -122 -5 -71 -49 -174 -119 -281 -47 -74 -118
-125 -238 -174 -44 -18 -80 -36 -80 -41 0 -23 121 -58 203 -58 l59 0 -7 -33
c-38 -174 -113 -353 -265 -632 -76 -140 -114 -240 -141 -368 -38 -185 -13
-418 56 -524 9 -13 13 -28 10 -33 -3 -6 3 -10 14 -10 28 0 34 16 16 43 -8 13
-27 68 -40 122 -20 76 -25 123 -25 214 0 79 3 111 10 101 5 -8 10 -28 10 -45
1 -94 85 -322 146 -395 13 -15 21 -30 17 -34 -3 -3 24 -6 61 -6 66 0 68 1 61
22 -58 187 -48 259 75 518 74 154 120 285 120 337 0 37 16 26 30 -19 48 -164
203 -347 353 -422 103 -51 185 -70 238 -56 37 10 40 14 35 36 -4 13 -5 24 -2
24 4 0 80 -31 84 -35 1 -1 -26 -64 -61 -139 l-64 -137 -81 -58 c-72 -52 -89
-71 -60 -71 5 0 6 5 3 10 -3 6 2 13 12 17 10 3 49 29 87 56 65 47 70 49 83 31
7 -10 13 -27 13 -38 0 -10 3 -17 6 -13 9 9 -4 53 -21 71 -14 13 -12 22 14 78
15 35 32 72 36 83 6 18 8 18 22 -10 22 -43 64 -85 85 -85 10 0 18 -7 18 -16 0
-10 -6 -14 -14 -11 -20 8 -27 -3 -15 -24 7 -14 6 -19 -4 -19 -8 0 -17 9 -20
20 -4 16 -11 18 -41 13 -29 -5 -36 -2 -36 11 0 13 6 15 28 10 l27 -6 -25 21
c-35 29 -47 26 -52 -14 -2 -19 0 -35 4 -35 9 0 23 -32 34 -75 5 -19 0 -28 -25
-43 -17 -10 -28 -22 -24 -25 10 -10 816 -8 831 2 9 6 -2 12 -35 20 -119 30
-194 86 -242 182 l-29 59 39 60 39 60 72 0 c83 0 118 7 118 24 0 6 -27 36 -60
66 l-61 55 13 52 c7 29 15 53 18 53 3 0 33 -35 67 -79 l62 -78 60 -7 c80 -9
91 -22 91 -102 0 -37 4 -64 10 -64 6 0 38 14 71 31 34 17 62 29 63 27 1 -2 9
-19 18 -40 9 -20 26 -39 37 -43 12 -3 21 -9 21 -13 0 -4 -5 -36 -10 -70 -5
-36 -5 -74 0 -87 9 -23 73 -55 113 -55 27 0 86 35 94 56 3 9 -2 51 -12 94
l-18 79 27 31 c14 17 26 40 26 51 0 23 7 24 55 3 20 -8 39 -13 42 -10 3 2 7
24 9 48 11 92 9 89 65 82 l50 -7 54 59 54 59 1 -79 c0 -72 4 -88 46 -180 71
-156 123 -308 116 -339 -1 -4 59 -7 133 -7 122 0 135 2 135 18 1 27 57 89 70
76 8 -8 5 -18 -10 -36 -11 -15 -20 -30 -20 -35 0 -4 12 7 26 25 l27 33 28 -27
c16 -15 29 -35 30 -43 0 -11 2 -12 6 -3 3 7 0 18 -6 26 -6 7 -20 43 -31 80
-12 37 -23 66 -26 63 -2 -2 0 -16 6 -31 19 -51 8 -72 -22 -43 -24 24 -136 79
-147 72 -6 -3 -11 -1 -11 5 0 7 9 14 20 17 20 5 21 8 40 91 16 68 8 76 -15 15
-20 -54 -68 -135 -92 -155 -15 -11 -16 -10 -10 12 5 22 4 23 -6 8 -70 -100
-92 -128 -102 -128 -6 0 -16 19 -22 43 -6 23 -26 82 -44 132 -31 83 -34 99
-34 205 1 63 7 141 14 172 11 50 16 59 39 63 15 3 49 15 76 25 27 11 51 18 54
16 2 -3 6 -22 8 -43 4 -34 -1 -46 -51 -113 -30 -41 -55 -82 -55 -92 0 -9 12
-26 28 -38 41 -33 119 -24 219 25 130 64 210 161 244 298 6 26 15 47 20 47 21
0 153 -280 195 -412 15 -51 16 -67 6 -133 -13 -85 -49 -163 -88 -194 -14 -11
-23 -25 -19 -31 9 -15 65 -13 65 3 0 8 9 22 20 32 10 9 24 34 31 54 22 69 32
60 25 -21 l-7 -78 28 0 c33 0 32 -3 34 133 2 123 -26 212 -136 446 -84 179
-107 223 -132 249 -15 16 -15 2 -13 222 1 228 -14 380 -56 568 -19 85 -34 161
-34 170 0 10 22 -35 49 -98 26 -63 55 -131 64 -150 9 -19 29 -66 46 -105 16
-38 61 -144 100 -235 40 -91 83 -194 97 -229 27 -70 67 -221 61 -227 -2 -2
-20 20 -40 49 -38 55 -87 107 -87 92 0 -4 21 -44 46 -87 84 -143 124 -300 124
-485 0 -71 -7 -146 -16 -188 -30 -130 -30 -125 3 -125 28 0 29 2 48 87 16 72
20 125 20 290 0 111 3 193 7 182 5 -12 17 -75 29 -142 24 -139 22 -263 -6
-337 -30 -82 -30 -80 2 -80 17 0 30 6 31 13 0 6 9 32 18 57 14 35 18 73 18
175 -1 145 -16 211 -95 408 -22 56 -65 173 -95 260 -31 87 -109 278 -175 424
-65 146 -119 267 -119 269 0 26 -181 410 -236 499 -20 33 -62 107 -94 165 -31
58 -63 115 -70 127 -13 20 -12 25 9 47 19 20 23 32 18 61 -7 42 1 44 33 10 30
-32 64 -30 68 4 6 41 -7 87 -33 115 -30 32 -30 32 -5 63 39 50 22 89 -43 100
-32 5 -35 8 -46 59 -13 56 -52 114 -77 114 -10 0 -14 -13 -14 -47 0 -46 -13
-84 -22 -67 -2 5 -1 72 4 149 9 142 2 413 -11 463 -4 15 -14 28 -22 30 -12 2
-221 -149 -397 -288 l-54 -42 -66 20 c-42 12 -71 16 -77 11 -6 -7 -5 -13 5
-19 39 -22 79 -56 80 -66 0 -13 -33 -44 -47 -44 -6 0 -37 12 -69 26 -82 36
-275 84 -341 84 -49 0 -54 2 -48 18 24 54 11 139 -28 188 -18 24 -18 26 -2 44
14 16 16 30 11 69 l-7 50 58 -5 c104 -9 160 -24 187 -49 42 -39 34 -62 -44
-135 -101 -94 -93 -122 29 -103 199 32 333 155 348 322 14 152 -109 247 -319
245 l-98 -1 -4 31 c-3 17 -11 65 -17 106 -22 142 -79 251 -158 301 -60 39 -97
37 -251 -11z m237 -52 c63 -66 106 -190 106 -301 0 -70 -12 -90 -107 -167
l-67 -55 6 -55 c3 -30 7 -64 8 -74 3 -28 -66 -66 -120 -66 -37 0 -43 3 -43 21
0 12 -9 52 -19 88 -33 110 -34 105 32 112 124 14 157 107 82 234 -30 52 -52
60 -132 52 -71 -7 -118 -42 -134 -100 -19 -64 -25 -68 -92 -65 l-61 3 -19 50
c-10 28 -28 74 -39 104 -25 63 -32 56 112 112 90 35 414 136 446 138 5 1 24
-14 41 -31z m-187 -344 c13 -34 9 -39 -58 -74 -31 -17 -64 -35 -73 -42 -10 -6
-27 -8 -45 -4 l-29 8 21 17 c12 9 33 35 47 57 16 27 37 44 59 51 53 17 68 15
78 -13z m584 -105 c51 -14 101 -47 120 -80 24 -41 20 -117 -9 -175 -32 -63
-100 -134 -130 -134 -22 0 -22 1 -9 41 11 30 12 50 4 78 -21 78 -88 111 -243
119 -109 5 -125 10 -110 36 14 25 104 88 152 107 53 21 165 25 225 8z m-732
-124 c4 -22 10 -50 13 -62 4 -19 1 -23 -18 -23 -40 0 -128 -30 -235 -80 -256
-121 -497 -328 -526 -453 -8 -33 17 -93 45 -108 36 -19 19 -27 -43 -22 -79 6
-164 43 -180 77 -41 90 146 324 388 486 174 116 432 232 509 227 37 -2 40 -4
47 -42z m71 -200 c16 -27 25 -51 19 -53 -5 -1 -16 -8 -25 -15 -15 -11 -14 -18
9 -82 13 -38 27 -77 30 -85 4 -12 -13 -19 -78 -34 -157 -35 -384 -132 -512
-219 -57 -38 -60 -39 -100 -27 -63 18 -106 48 -106 73 0 63 144 207 321 320
127 81 344 178 388 174 18 -1 33 -16 54 -52z m1326 -215 c-9 -182 -19 -330
-24 -330 -1 0 -36 33 -78 74 -56 54 -79 85 -88 116 -13 42 -12 45 31 126 42
80 47 110 13 88 -26 -16 -91 -132 -98 -174 -4 -22 -8 -40 -11 -40 -7 0 -135
72 -132 75 2 2 27 21 56 43 29 21 78 61 109 88 30 27 92 79 137 115 l81 66 6
-36 c4 -20 3 -115 -2 -211z m-1070 89 c7 -23 11 -43 9 -45 -6 -6 -159 -36
-162 -32 -1 1 -12 22 -24 46 -16 32 -19 44 -10 47 24 9 103 23 139 24 34 1 37
-2 48 -40z m195 -190 c133 -23 317 -104 486 -214 63 -41 298 -270 288 -280 -8
-8 -82 21 -129 50 -24 15 -99 81 -166 146 -66 66 -125 119 -130 119 -22 0 -20
-15 7 -64 15 -28 45 -93 65 -145 35 -87 37 -99 31 -170 -3 -42 -8 -94 -12
-117 l-6 -41 54 -17 c114 -38 188 -98 321 -264 36 -46 64 -72 77 -72 36 0 34
42 -6 157 -32 95 -37 122 -42 228 -3 82 -1 117 6 110 35 -34 155 -232 217
-360 94 -193 136 -300 180 -461 50 -182 64 -272 76 -493 12 -211 2 -393 -27
-493 -39 -132 -126 -212 -293 -269 -82 -29 -88 -24 -41 27 42 46 113 183 145
280 19 58 17 169 -2 169 -7 0 -32 -29 -56 -65 -30 -46 -58 -74 -96 -97 -51
-31 -155 -62 -167 -51 -3 3 17 28 44 56 73 75 121 230 110 353 -4 42 -1 52 30
91 104 130 97 272 -18 383 -28 27 -65 86 -115 185 -86 170 -150 265 -260 390
-105 119 -451 450 -471 450 -17 0 -14 -27 11 -110 25 -80 125 -513 120 -518
-8 -9 -65 22 -118 62 -80 61 -86 35 -27 -104 22 -51 38 -96 35 -98 -10 -11
-179 53 -244 92 -69 41 -241 180 -241 195 0 4 14 20 30 36 17 16 30 33 30 38
0 9 -53 5 -96 -8 -44 -13 -198 238 -211 342 -6 55 -26 84 -44 66 -6 -6 -15
-82 -19 -169 -8 -147 -31 -319 -44 -332 -3 -3 -6 53 -6 125 0 107 -3 133 -16
144 -30 25 -38 -8 -54 -241 -34 -501 -33 -745 6 -975 44 -263 146 -482 304
-649 l65 -69 -58 7 c-84 11 -229 59 -284 94 -26 17 -64 47 -82 66 -41 42 -57
45 -72 12 -13 -27 2 -112 26 -160 9 -16 14 -31 11 -33 -8 -8 -121 30 -195 64
-126 60 -196 141 -251 290 -93 257 -79 517 61 1087 43 174 47 216 24 216 -21
0 -41 -54 -90 -245 -87 -343 -115 -514 -115 -710 0 -154 12 -225 61 -375 38
-114 88 -213 137 -270 33 -39 34 -42 11 -35 -48 15 -135 65 -182 104 -178 149
-268 370 -270 666 -1 104 16 338 28 401 3 11 28 37 57 57 59 40 125 104 116
112 -3 3 -61 -22 -129 -54 -99 -48 -142 -63 -214 -74 -49 -8 -91 -14 -93 -12
-1 1 27 21 62 43 67 44 122 99 226 229 46 57 85 124 145 248 106 221 193 353
356 541 87 101 132 139 232 198 176 104 389 177 587 200 51 6 246 -3 314 -15z
m-1762 -67 c127 -96 196 -141 321 -207 146 -78 211 -128 187 -144 -25 -17
-170 -74 -175 -69 -3 3 2 19 11 36 19 40 24 113 7 119 -8 3 -13 -3 -13 -14 0
-34 -98 -183 -120 -183 -4 0 -5 22 -2 49 8 88 -33 208 -100 294 -29 36 -65 63
-74 55 -2 -2 17 -35 41 -74 56 -86 76 -144 78 -229 2 -60 -1 -69 -22 -86 -15
-13 -36 -19 -55 -17 -29 3 -32 7 -59 93 -26 84 -107 399 -107 417 0 17 20 7
82 -40z m2309 -83 c115 -112 120 -123 19 -38 -30 26 -81 63 -112 83 -57 36
-65 46 -51 59 16 16 37 1 144 -104z m170 -9 c68 -51 172 -150 164 -158 -3 -3
-10 -1 -16 5 -19 19 -40 4 -28 -18 29 -54 -42 11 -149 138 -29 34 -52 64 -52
67 0 16 32 2 81 -34z m280 -72 c6 -23 8 -56 4 -75 l-6 -33 45 0 c83 0 94 -16
46 -67 -17 -18 -30 -34 -30 -36 0 -3 16 -21 35 -40 27 -27 35 -43 35 -72 l0
-36 -28 18 c-15 10 -36 23 -47 29 -11 6 -30 37 -43 70 -13 32 -37 78 -53 102
-33 49 -34 55 -15 85 8 12 17 41 21 65 8 50 20 47 36 -10z m-2203 -90 c-3 -7
-13 -13 -23 -13 -10 0 -20 6 -22 13 -3 7 5 12 22 12 17 0 25 -5 23 -12z m1770
-145 c52 -39 162 -93 191 -93 20 0 21 -5 21 -82 0 -78 9 -157 26 -222 6 -25 0
-21 -57 35 -65 65 -187 139 -229 139 -20 0 -21 3 -13 43 10 53 10 163 0 200
-9 33 -7 32 61 -20z m-1908 -67 c0 -9 -59 -93 -72 -103 -7 -5 -40 -18 -73 -27
-33 -10 -66 -20 -74 -22 -23 -8 1 -22 41 -26 l38 -3 -30 -32 c-35 -37 -38 -47
-10 -40 26 7 25 0 -9 -62 l-28 -52 -47 53 c-47 51 -104 152 -132 231 l-14 38
78 -6 c85 -7 185 5 265 34 59 21 67 23 67 17z m1688 -253 c2 -7 -3 -13 -11
-13 -21 0 -42 -29 -30 -41 5 -5 37 -14 72 -20 60 -11 64 -13 134 -91 107 -117
169 -213 267 -411 53 -106 98 -186 114 -198 38 -30 56 -71 56 -125 0 -81 -19
-124 -82 -186 -113 -112 -301 -177 -633 -218 -289 -36 -624 -18 -841 45 -105
30 -123 94 -131 465 l-5 256 40 119 c46 138 79 285 90 400 l7 80 39 -60 c21
-33 54 -80 74 -103 l35 -44 -42 -38 c-28 -26 -41 -46 -41 -64 0 -34 9 -33 64
9 26 19 49 35 52 35 3 0 45 -36 92 -80 170 -159 332 -240 485 -240 81 0 82 4
31 96 -20 36 -34 67 -32 69 2 2 30 -9 62 -25 32 -17 67 -30 78 -30 41 0 40 9
-67 405 -19 72 -38 141 -41 155 -5 19 12 7 77 -55 46 -44 85 -86 87 -92z
m-1928 -169 c0 -11 -50 -103 -59 -108 -6 -4 -6 6 -1 26 4 18 11 50 15 71 5 33
8 36 25 27 11 -6 20 -13 20 -16z m-163 -593 c-18 -165 -19 -268 -7 -442 13
-184 13 -191 -8 -271 -14 -52 -56 -151 -112 -264 -106 -212 -134 -305 -128
-425 l3 -78 -23 21 c-52 50 -82 244 -63 406 6 51 27 143 46 205 91 293 103
335 109 377 12 82 -17 21 -93 -190 -79 -225 -109 -332 -118 -428 -8 -88 -18
-57 -27 83 -9 144 3 181 137 435 123 231 151 310 212 597 5 20 20 27 64 32 11
1 13 -11 8 -58z m2288 -606 c-66 -76 -127 -110 -258 -139 -27 -6 -28 -5 -23
21 5 21 0 36 -18 58 -28 35 -43 28 -71 -34 -21 -48 -50 -56 -173 -46 -80 7
-88 10 -160 59 l-76 51 205 6 c204 6 359 24 519 58 47 10 89 19 93 20 5 0 -12
-24 -38 -54z m-175 -200 c0 -3 -19 -29 -43 -58 -23 -29 -50 -64 -60 -77 -28
-41 -39 -13 -20 51 15 51 20 57 57 71 44 17 66 21 66 13z m-190 -23 c0 -4 -5
-13 -11 -19 -9 -9 -6 -19 10 -39 21 -27 28 -64 12 -64 -11 0 -100 70 -120 93
-12 15 -10 17 20 17 19 0 41 5 49 10 18 12 40 13 40 2z m860 -5 c0 -14 -20
-37 -32 -37 -12 0 -10 24 4 38 16 16 28 15 28 -1z m-802 -160 c4 -20 -25 -34
-40 -19 -15 15 -1 44 19 40 10 -2 19 -11 21 -21z m2 -69 c0 -12 18 -85 39
-162 57 -202 58 -210 30 -230 -28 -19 -87 -21 -125 -4 -26 12 -26 14 -20 78 4
36 13 112 22 170 8 58 18 120 20 138 6 36 34 45 34 10z m-930 -43 c47 -21 87
-39 89 -41 2 -2 -7 -40 -19 -86 -12 -46 -24 -121 -27 -168 -3 -47 -6 -91 -9
-98 -6 -19 -71 18 -121 70 -47 48 -123 186 -123 224 0 23 2 24 80 24 44 0 80
4 80 9 0 6 -18 31 -40 56 -22 25 -40 49 -40 52 0 10 43 -4 130 -42z m1110 30
c26 -13 30 -21 30 -55 0 -22 -3 -40 -7 -40 -19 0 -62 48 -64 70 -3 47 -2 47
41 25z m-380 -32 c0 -26 -8 -45 -27 -65 -35 -37 -43 -35 -43 9 0 26 8 45 27
65 35 37 43 35 43 -9z m263 -12 c9 -16 17 -48 17 -72 0 -38 -2 -41 -14 -29
-12 13 -46 109 -46 132 0 16 27 -4 43 -31z m-123 9 c0 -30 -21 -124 -30 -134
-5 -4 -13 9 -19 30 -9 33 -7 45 10 81 22 46 39 56 39 23z m-1091 -102 c17 -69
65 -158 113 -213 22 -25 36 -45 33 -45 -19 0 -73 42 -85 67 -8 15 -27 43 -42
60 -15 18 -36 64 -48 101 -24 84 -24 82 -2 82 14 0 22 -13 31 -52z m-46 -35
c2 -32 4 -59 3 -60 -1 -1 -12 14 -25 33 -20 29 -22 38 -13 59 18 40 29 29 35
-32z"/>
<path d="M2905 1920 c-73 -29 -111 -173 -65 -248 11 -18 36 -40 55 -48 120
-50 216 36 191 170 -15 78 -119 151 -181 126z"/>
<path d="M1923 1820 c-106 -64 -117 -222 -20 -294 39 -29 134 -29 174 0 71 53
91 129 54 209 -43 93 -135 130 -208 85z"/>
<path d="M2751 1510 c-15 -32 -70 -70 -100 -70 -12 0 -35 7 -52 15 -28 15 -31
14 -63 -10 -42 -32 -121 -48 -171 -34 -28 8 -40 18 -52 47 -9 20 -18 32 -20
25 -6 -17 24 -71 46 -83 26 -13 122 -13 158 1 15 6 38 19 50 31 20 19 22 19
47 3 61 -40 184 14 174 76 l-4 24 -13 -25z"/>
<path d="M3510 407 c0 -10 8 -29 17 -43 15 -24 15 -27 0 -54 -23 -38 -21 -53
9 -90 25 -29 27 -57 2 -32 -7 7 -19 12 -27 12 -10 0 -3 -12 19 -35 19 -19 38
-35 42 -35 4 0 8 16 8 36 0 21 4 33 10 29 15 -9 13 -1 -16 73 -45 118 -63 157
-64 139z m50 -138 c0 -11 -4 -17 -10 -14 -5 3 -10 15 -10 26 0 11 5 17 10 14
6 -3 10 -15 10 -26z m20 -39 c0 -5 -2 -10 -4 -10 -3 0 -8 5 -11 10 -3 6 -1 10
4 10 6 0 11 -4 11 -10z"/>
<path d="M3426 295 c-9 -26 -7 -32 5 -12 6 10 9 21 6 23 -2 3 -7 -2 -11 -11z"/>
<path d="M1223 40 c-24 -19 -30 -40 -13 -40 6 0 10 5 10 11 0 7 8 18 17 25 10
7 16 15 13 17 -3 3 -15 -3 -27 -13z"/>
</g>
</svg>
